<mxfile>
  <diagram id="n4IkMSlUa08pGZJtsHPR" name="PÃ¡gina-1">
    <mxGraphModel dx="1160" dy="553" grid="0" gridSize="10" guides="1" tooltips="1" connect="1" arrows="1" fold="1" page="0" pageScale="1" pageWidth="827" pageHeight="1169" background="#FFFFFF" math="0" shadow="0">
      <root>
        <mxCell id="0" />
        <mxCell id="1" parent="0" />
        <mxCell id="2" value="&lt;div style=&quot;color: #f8f8f2;background-color: #282a36;font-family: Consolas, &#39;Courier New&#39;, monospace;font-weight: normal;font-size: 14px;line-height: 19px;white-space: pre;&quot;&gt;&lt;div&gt;&lt;span style=&quot;color: #6272a4;&quot;&gt;(((A (B C)) ((D (E (F (G (H))))))))&lt;/span&gt;&lt;/div&gt;&lt;/div&gt;" style="text;whiteSpace=wrap;html=1;" parent="1" vertex="1">
          <mxGeometry x="30" y="50" width="300" height="40" as="geometry" />
        </mxCell>
        <mxCell id="3" value="" style="rounded=0;whiteSpace=wrap;html=1;" parent="1" vertex="1">
          <mxGeometry x="30" y="110" width="70" height="40" as="geometry" />
        </mxCell>
        <mxCell id="4" value="" style="edgeStyle=none;html=1;rounded=0;" parent="1" edge="1">
          <mxGeometry relative="1" as="geometry">
            <mxPoint x="65" y="140" as="sourcePoint" />
            <mxPoint x="65" y="200" as="targetPoint" />
          </mxGeometry>
        </mxCell>
        <mxCell id="5" value="" style="rounded=0;whiteSpace=wrap;html=1;" parent="1" vertex="1">
          <mxGeometry x="100" y="110" width="70" height="40" as="geometry" />
        </mxCell>
        <mxCell id="6" value="" style="ellipse;whiteSpace=wrap;html=1;aspect=fixed;fillColor=#000000;rounded=0;" parent="1" vertex="1">
          <mxGeometry x="125" y="120" width="20" height="20" as="geometry" />
        </mxCell>
        <mxCell id="7" value="" style="ellipse;whiteSpace=wrap;html=1;aspect=fixed;fillColor=#000000;rounded=0;" parent="1" vertex="1">
          <mxGeometry x="55" y="120" width="20" height="20" as="geometry" />
        </mxCell>
        <mxCell id="8" value="" style="edgeStyle=none;html=1;rounded=0;" parent="1" edge="1">
          <mxGeometry relative="1" as="geometry">
            <mxPoint x="1660" y="130" as="targetPoint" />
            <mxPoint x="145" y="129.57999999999998" as="sourcePoint" />
          </mxGeometry>
        </mxCell>
        <mxCell id="10" value="" style="rounded=0;whiteSpace=wrap;html=1;" parent="1" vertex="1">
          <mxGeometry x="30" y="200" width="70" height="40" as="geometry" />
        </mxCell>
        <mxCell id="11" value="" style="edgeStyle=none;html=1;rounded=0;" parent="1" edge="1">
          <mxGeometry relative="1" as="geometry">
            <mxPoint x="65" y="230" as="sourcePoint" />
            <mxPoint x="65" y="290" as="targetPoint" />
          </mxGeometry>
        </mxCell>
        <mxCell id="12" value="" style="rounded=0;whiteSpace=wrap;html=1;" parent="1" vertex="1">
          <mxGeometry x="100" y="200" width="70" height="40" as="geometry" />
        </mxCell>
        <mxCell id="13" value="" style="ellipse;whiteSpace=wrap;html=1;aspect=fixed;fillColor=#000000;rounded=0;" parent="1" vertex="1">
          <mxGeometry x="125" y="210" width="20" height="20" as="geometry" />
        </mxCell>
        <mxCell id="14" value="" style="ellipse;whiteSpace=wrap;html=1;aspect=fixed;fillColor=#000000;rounded=0;" parent="1" vertex="1">
          <mxGeometry x="55" y="210" width="20" height="20" as="geometry" />
        </mxCell>
        <mxCell id="15" value="" style="edgeStyle=none;html=1;rounded=0;" parent="1" edge="1">
          <mxGeometry relative="1" as="geometry">
            <mxPoint x="660" y="220" as="targetPoint" />
            <mxPoint x="145" y="219.57999999999998" as="sourcePoint" />
          </mxGeometry>
        </mxCell>
        <mxCell id="17" value="" style="rounded=0;whiteSpace=wrap;html=1;" parent="1" vertex="1">
          <mxGeometry x="30" y="290" width="70" height="40" as="geometry" />
        </mxCell>
        <mxCell id="18" value="" style="edgeStyle=none;html=1;rounded=0;" parent="1" edge="1">
          <mxGeometry relative="1" as="geometry">
            <mxPoint x="65" y="320" as="sourcePoint" />
            <mxPoint x="65" y="380" as="targetPoint" />
          </mxGeometry>
        </mxCell>
        <mxCell id="19" value="" style="rounded=0;whiteSpace=wrap;html=1;" parent="1" vertex="1">
          <mxGeometry x="100" y="290" width="70" height="40" as="geometry" />
        </mxCell>
        <mxCell id="20" value="" style="ellipse;whiteSpace=wrap;html=1;aspect=fixed;fillColor=#000000;rounded=0;" parent="1" vertex="1">
          <mxGeometry x="125" y="300" width="20" height="20" as="geometry" />
        </mxCell>
        <mxCell id="21" value="" style="ellipse;whiteSpace=wrap;html=1;aspect=fixed;fillColor=#000000;rounded=0;" parent="1" vertex="1">
          <mxGeometry x="55" y="300" width="20" height="20" as="geometry" />
        </mxCell>
        <mxCell id="22" value="" style="edgeStyle=none;html=1;rounded=0;" parent="1" edge="1">
          <mxGeometry relative="1" as="geometry">
            <mxPoint x="220" y="309.58" as="targetPoint" />
            <mxPoint x="145" y="309.58" as="sourcePoint" />
          </mxGeometry>
        </mxCell>
        <mxCell id="23" value="A" style="text;html=1;align=center;verticalAlign=middle;resizable=0;points=[];autosize=1;strokeColor=none;fillColor=none;rounded=0;" parent="1" vertex="1">
          <mxGeometry x="50" y="380" width="30" height="30" as="geometry" />
        </mxCell>
        <mxCell id="24" value="" style="rounded=0;whiteSpace=wrap;html=1;" parent="1" vertex="1">
          <mxGeometry x="220" y="290" width="70" height="40" as="geometry" />
        </mxCell>
        <mxCell id="25" value="" style="edgeStyle=none;html=1;rounded=0;" parent="1" edge="1">
          <mxGeometry relative="1" as="geometry">
            <mxPoint x="255" y="320" as="sourcePoint" />
            <mxPoint x="255" y="380" as="targetPoint" />
          </mxGeometry>
        </mxCell>
        <mxCell id="26" value="" style="rounded=0;whiteSpace=wrap;html=1;" parent="1" vertex="1">
          <mxGeometry x="290" y="290" width="70" height="40" as="geometry" />
        </mxCell>
        <mxCell id="27" value="" style="ellipse;whiteSpace=wrap;html=1;aspect=fixed;fillColor=#000000;rounded=0;" parent="1" vertex="1">
          <mxGeometry x="315" y="300" width="20" height="20" as="geometry" />
        </mxCell>
        <mxCell id="28" value="" style="ellipse;whiteSpace=wrap;html=1;aspect=fixed;fillColor=#000000;rounded=0;" parent="1" vertex="1">
          <mxGeometry x="245" y="300" width="20" height="20" as="geometry" />
        </mxCell>
        <mxCell id="29" value="" style="edgeStyle=none;html=1;rounded=0;" parent="1" edge="1">
          <mxGeometry relative="1" as="geometry">
            <mxPoint x="610" y="310" as="targetPoint" />
            <mxPoint x="335" y="309.58" as="sourcePoint" />
          </mxGeometry>
        </mxCell>
        <mxCell id="31" value="" style="rounded=0;whiteSpace=wrap;html=1;" parent="1" vertex="1">
          <mxGeometry x="220" y="380" width="70" height="40" as="geometry" />
        </mxCell>
        <mxCell id="32" value="" style="edgeStyle=none;html=1;rounded=0;" parent="1" edge="1">
          <mxGeometry relative="1" as="geometry">
            <mxPoint x="255" y="410" as="sourcePoint" />
            <mxPoint x="255" y="470" as="targetPoint" />
          </mxGeometry>
        </mxCell>
        <mxCell id="33" value="" style="rounded=0;whiteSpace=wrap;html=1;" parent="1" vertex="1">
          <mxGeometry x="290" y="380" width="70" height="40" as="geometry" />
        </mxCell>
        <mxCell id="34" value="" style="ellipse;whiteSpace=wrap;html=1;aspect=fixed;fillColor=#000000;rounded=0;" parent="1" vertex="1">
          <mxGeometry x="315" y="390" width="20" height="20" as="geometry" />
        </mxCell>
        <mxCell id="35" value="" style="ellipse;whiteSpace=wrap;html=1;aspect=fixed;fillColor=#000000;rounded=0;" parent="1" vertex="1">
          <mxGeometry x="245" y="390" width="20" height="20" as="geometry" />
        </mxCell>
        <mxCell id="36" value="" style="edgeStyle=none;html=1;rounded=0;" parent="1" edge="1">
          <mxGeometry relative="1" as="geometry">
            <mxPoint x="410" y="399.58" as="targetPoint" />
            <mxPoint x="335" y="399.58" as="sourcePoint" />
          </mxGeometry>
        </mxCell>
        <mxCell id="37" value="B" style="text;html=1;align=center;verticalAlign=middle;resizable=0;points=[];autosize=1;strokeColor=none;fillColor=none;rounded=0;" parent="1" vertex="1">
          <mxGeometry x="240" y="470" width="30" height="30" as="geometry" />
        </mxCell>
        <mxCell id="38" value="" style="rounded=0;whiteSpace=wrap;html=1;" parent="1" vertex="1">
          <mxGeometry x="410" y="380" width="70" height="40" as="geometry" />
        </mxCell>
        <mxCell id="39" value="" style="edgeStyle=none;html=1;rounded=0;" parent="1" edge="1">
          <mxGeometry relative="1" as="geometry">
            <mxPoint x="445" y="410" as="sourcePoint" />
            <mxPoint x="445" y="470" as="targetPoint" />
          </mxGeometry>
        </mxCell>
        <mxCell id="40" value="" style="rounded=0;whiteSpace=wrap;html=1;" parent="1" vertex="1">
          <mxGeometry x="480" y="380" width="70" height="40" as="geometry" />
        </mxCell>
        <mxCell id="41" value="" style="ellipse;whiteSpace=wrap;html=1;aspect=fixed;fillColor=#000000;rounded=0;" parent="1" vertex="1">
          <mxGeometry x="505" y="390" width="20" height="20" as="geometry" />
        </mxCell>
        <mxCell id="42" value="" style="ellipse;whiteSpace=wrap;html=1;aspect=fixed;fillColor=#000000;rounded=0;" parent="1" vertex="1">
          <mxGeometry x="435" y="390" width="20" height="20" as="geometry" />
        </mxCell>
        <mxCell id="43" value="" style="edgeStyle=none;html=1;rounded=0;" parent="1" edge="1">
          <mxGeometry relative="1" as="geometry">
            <mxPoint x="600" y="399.58" as="targetPoint" />
            <mxPoint x="525" y="399.58" as="sourcePoint" />
          </mxGeometry>
        </mxCell>
        <mxCell id="44" value="C" style="text;html=1;align=center;verticalAlign=middle;resizable=0;points=[];autosize=1;strokeColor=none;fillColor=none;rounded=0;" parent="1" vertex="1">
          <mxGeometry x="430" y="470" width="30" height="30" as="geometry" />
        </mxCell>
        <mxCell id="52" value="NIL" style="text;html=1;align=center;verticalAlign=middle;resizable=0;points=[];autosize=1;strokeColor=none;fillColor=none;rounded=0;" parent="1" vertex="1">
          <mxGeometry x="593" y="385" width="40" height="30" as="geometry" />
        </mxCell>
        <mxCell id="53" value="NIL" style="text;html=1;align=center;verticalAlign=middle;resizable=0;points=[];autosize=1;strokeColor=none;fillColor=none;rounded=0;" parent="1" vertex="1">
          <mxGeometry x="603" y="295" width="40" height="30" as="geometry" />
        </mxCell>
        <mxCell id="54" value="" style="rounded=0;whiteSpace=wrap;html=1;" parent="1" vertex="1">
          <mxGeometry x="660" y="200" width="70" height="40" as="geometry" />
        </mxCell>
        <mxCell id="55" value="" style="edgeStyle=none;html=1;rounded=0;" parent="1" edge="1">
          <mxGeometry relative="1" as="geometry">
            <mxPoint x="695" y="230" as="sourcePoint" />
            <mxPoint x="695" y="290" as="targetPoint" />
          </mxGeometry>
        </mxCell>
        <mxCell id="56" value="" style="rounded=0;whiteSpace=wrap;html=1;" parent="1" vertex="1">
          <mxGeometry x="730" y="200" width="70" height="40" as="geometry" />
        </mxCell>
        <mxCell id="57" value="" style="ellipse;whiteSpace=wrap;html=1;aspect=fixed;fillColor=#000000;rounded=0;" parent="1" vertex="1">
          <mxGeometry x="755" y="210" width="20" height="20" as="geometry" />
        </mxCell>
        <mxCell id="58" value="" style="ellipse;whiteSpace=wrap;html=1;aspect=fixed;fillColor=#000000;rounded=0;" parent="1" vertex="1">
          <mxGeometry x="685" y="210" width="20" height="20" as="geometry" />
        </mxCell>
        <mxCell id="59" value="" style="edgeStyle=none;html=1;rounded=0;" parent="1" edge="1">
          <mxGeometry relative="1" as="geometry">
            <mxPoint x="1650" y="220" as="targetPoint" />
            <mxPoint x="775" y="219.57999999999998" as="sourcePoint" />
          </mxGeometry>
        </mxCell>
        <mxCell id="61" value="" style="rounded=0;whiteSpace=wrap;html=1;" parent="1" vertex="1">
          <mxGeometry x="660" y="295" width="70" height="40" as="geometry" />
        </mxCell>
        <mxCell id="62" value="" style="edgeStyle=none;html=1;rounded=0;" parent="1" edge="1">
          <mxGeometry relative="1" as="geometry">
            <mxPoint x="695" y="325" as="sourcePoint" />
            <mxPoint x="695" y="385" as="targetPoint" />
          </mxGeometry>
        </mxCell>
        <mxCell id="63" value="" style="rounded=0;whiteSpace=wrap;html=1;" parent="1" vertex="1">
          <mxGeometry x="730" y="295" width="70" height="40" as="geometry" />
        </mxCell>
        <mxCell id="64" value="" style="ellipse;whiteSpace=wrap;html=1;aspect=fixed;fillColor=#000000;rounded=0;" parent="1" vertex="1">
          <mxGeometry x="755" y="305" width="20" height="20" as="geometry" />
        </mxCell>
        <mxCell id="65" value="" style="ellipse;whiteSpace=wrap;html=1;aspect=fixed;fillColor=#000000;rounded=0;" parent="1" vertex="1">
          <mxGeometry x="685" y="305" width="20" height="20" as="geometry" />
        </mxCell>
        <mxCell id="66" value="" style="edgeStyle=none;html=1;rounded=0;" parent="1" edge="1">
          <mxGeometry relative="1" as="geometry">
            <mxPoint x="850" y="314.58" as="targetPoint" />
            <mxPoint x="775" y="314.58" as="sourcePoint" />
          </mxGeometry>
        </mxCell>
        <mxCell id="67" value="D" style="text;html=1;align=center;verticalAlign=middle;resizable=0;points=[];autosize=1;strokeColor=none;fillColor=none;rounded=0;" parent="1" vertex="1">
          <mxGeometry x="680" y="385" width="30" height="30" as="geometry" />
        </mxCell>
        <mxCell id="68" value="" style="rounded=0;whiteSpace=wrap;html=1;" parent="1" vertex="1">
          <mxGeometry x="850" y="295" width="70" height="40" as="geometry" />
        </mxCell>
        <mxCell id="69" value="" style="edgeStyle=none;html=1;rounded=0;" parent="1" edge="1">
          <mxGeometry relative="1" as="geometry">
            <mxPoint x="885" y="325" as="sourcePoint" />
            <mxPoint x="885" y="385" as="targetPoint" />
          </mxGeometry>
        </mxCell>
        <mxCell id="70" value="" style="rounded=0;whiteSpace=wrap;html=1;" parent="1" vertex="1">
          <mxGeometry x="920" y="295" width="70" height="40" as="geometry" />
        </mxCell>
        <mxCell id="71" value="" style="ellipse;whiteSpace=wrap;html=1;aspect=fixed;fillColor=#000000;rounded=0;" parent="1" vertex="1">
          <mxGeometry x="945" y="305" width="20" height="20" as="geometry" />
        </mxCell>
        <mxCell id="72" value="" style="ellipse;whiteSpace=wrap;html=1;aspect=fixed;fillColor=#000000;rounded=0;" parent="1" vertex="1">
          <mxGeometry x="875" y="305" width="20" height="20" as="geometry" />
        </mxCell>
        <mxCell id="73" value="" style="edgeStyle=none;html=1;rounded=0;" parent="1" edge="1">
          <mxGeometry relative="1" as="geometry">
            <mxPoint x="1640" y="315" as="targetPoint" />
            <mxPoint x="965" y="314.58" as="sourcePoint" />
          </mxGeometry>
        </mxCell>
        <mxCell id="75" value="" style="rounded=0;whiteSpace=wrap;html=1;" parent="1" vertex="1">
          <mxGeometry x="850" y="385" width="70" height="40" as="geometry" />
        </mxCell>
        <mxCell id="76" value="" style="edgeStyle=none;html=1;rounded=0;" parent="1" edge="1">
          <mxGeometry relative="1" as="geometry">
            <mxPoint x="885" y="415" as="sourcePoint" />
            <mxPoint x="885" y="475" as="targetPoint" />
          </mxGeometry>
        </mxCell>
        <mxCell id="77" value="" style="rounded=0;whiteSpace=wrap;html=1;" parent="1" vertex="1">
          <mxGeometry x="920" y="385" width="70" height="40" as="geometry" />
        </mxCell>
        <mxCell id="78" value="" style="ellipse;whiteSpace=wrap;html=1;aspect=fixed;fillColor=#000000;rounded=0;" parent="1" vertex="1">
          <mxGeometry x="945" y="395" width="20" height="20" as="geometry" />
        </mxCell>
        <mxCell id="79" value="" style="ellipse;whiteSpace=wrap;html=1;aspect=fixed;fillColor=#000000;rounded=0;" parent="1" vertex="1">
          <mxGeometry x="875" y="395" width="20" height="20" as="geometry" />
        </mxCell>
        <mxCell id="80" value="" style="edgeStyle=none;html=1;rounded=0;" parent="1" edge="1">
          <mxGeometry relative="1" as="geometry">
            <mxPoint x="1040" y="404.58" as="targetPoint" />
            <mxPoint x="965" y="404.58" as="sourcePoint" />
          </mxGeometry>
        </mxCell>
        <mxCell id="81" value="E" style="text;html=1;align=center;verticalAlign=middle;resizable=0;points=[];autosize=1;strokeColor=none;fillColor=none;rounded=0;" parent="1" vertex="1">
          <mxGeometry x="870" y="475" width="30" height="30" as="geometry" />
        </mxCell>
        <mxCell id="82" value="" style="rounded=0;whiteSpace=wrap;html=1;" parent="1" vertex="1">
          <mxGeometry x="1040" y="385" width="70" height="40" as="geometry" />
        </mxCell>
        <mxCell id="83" value="" style="edgeStyle=none;html=1;rounded=0;" parent="1" edge="1">
          <mxGeometry relative="1" as="geometry">
            <mxPoint x="1075" y="415" as="sourcePoint" />
            <mxPoint x="1075" y="475" as="targetPoint" />
          </mxGeometry>
        </mxCell>
        <mxCell id="84" value="" style="rounded=0;whiteSpace=wrap;html=1;" parent="1" vertex="1">
          <mxGeometry x="1110" y="385" width="70" height="40" as="geometry" />
        </mxCell>
        <mxCell id="85" value="" style="ellipse;whiteSpace=wrap;html=1;aspect=fixed;fillColor=#000000;rounded=0;" parent="1" vertex="1">
          <mxGeometry x="1135" y="395" width="20" height="20" as="geometry" />
        </mxCell>
        <mxCell id="86" value="" style="ellipse;whiteSpace=wrap;html=1;aspect=fixed;fillColor=#000000;rounded=0;" parent="1" vertex="1">
          <mxGeometry x="1065" y="395" width="20" height="20" as="geometry" />
        </mxCell>
        <mxCell id="87" value="" style="edgeStyle=none;html=1;rounded=0;" parent="1" edge="1">
          <mxGeometry relative="1" as="geometry">
            <mxPoint x="1640" y="405" as="targetPoint" />
            <mxPoint x="1155" y="404.58" as="sourcePoint" />
          </mxGeometry>
        </mxCell>
        <mxCell id="89" value="" style="rounded=0;whiteSpace=wrap;html=1;" parent="1" vertex="1">
          <mxGeometry x="1040" y="475" width="70" height="40" as="geometry" />
        </mxCell>
        <mxCell id="90" value="" style="edgeStyle=none;html=1;rounded=0;" parent="1" edge="1">
          <mxGeometry relative="1" as="geometry">
            <mxPoint x="1075" y="505" as="sourcePoint" />
            <mxPoint x="1075" y="565" as="targetPoint" />
          </mxGeometry>
        </mxCell>
        <mxCell id="91" value="" style="rounded=0;whiteSpace=wrap;html=1;" parent="1" vertex="1">
          <mxGeometry x="1110" y="475" width="70" height="40" as="geometry" />
        </mxCell>
        <mxCell id="92" value="" style="ellipse;whiteSpace=wrap;html=1;aspect=fixed;fillColor=#000000;rounded=0;" parent="1" vertex="1">
          <mxGeometry x="1135" y="485" width="20" height="20" as="geometry" />
        </mxCell>
        <mxCell id="93" value="" style="ellipse;whiteSpace=wrap;html=1;aspect=fixed;fillColor=#000000;rounded=0;" parent="1" vertex="1">
          <mxGeometry x="1065" y="485" width="20" height="20" as="geometry" />
        </mxCell>
        <mxCell id="94" value="" style="edgeStyle=none;html=1;rounded=0;" parent="1" edge="1">
          <mxGeometry relative="1" as="geometry">
            <mxPoint x="1230" y="494.58" as="targetPoint" />
            <mxPoint x="1155" y="494.58" as="sourcePoint" />
          </mxGeometry>
        </mxCell>
        <mxCell id="95" value="F" style="text;html=1;align=center;verticalAlign=middle;resizable=0;points=[];autosize=1;strokeColor=none;fillColor=none;rounded=0;" parent="1" vertex="1">
          <mxGeometry x="1060" y="565" width="30" height="30" as="geometry" />
        </mxCell>
        <mxCell id="96" value="" style="rounded=0;whiteSpace=wrap;html=1;" parent="1" vertex="1">
          <mxGeometry x="1230" y="475" width="70" height="40" as="geometry" />
        </mxCell>
        <mxCell id="97" value="" style="edgeStyle=none;html=1;rounded=0;" parent="1" edge="1">
          <mxGeometry relative="1" as="geometry">
            <mxPoint x="1265" y="505" as="sourcePoint" />
            <mxPoint x="1265" y="565" as="targetPoint" />
          </mxGeometry>
        </mxCell>
        <mxCell id="98" value="" style="rounded=0;whiteSpace=wrap;html=1;" parent="1" vertex="1">
          <mxGeometry x="1300" y="475" width="70" height="40" as="geometry" />
        </mxCell>
        <mxCell id="99" value="" style="ellipse;whiteSpace=wrap;html=1;aspect=fixed;fillColor=#000000;rounded=0;" parent="1" vertex="1">
          <mxGeometry x="1325" y="485" width="20" height="20" as="geometry" />
        </mxCell>
        <mxCell id="100" value="" style="ellipse;whiteSpace=wrap;html=1;aspect=fixed;fillColor=#000000;rounded=0;" parent="1" vertex="1">
          <mxGeometry x="1255" y="485" width="20" height="20" as="geometry" />
        </mxCell>
        <mxCell id="101" value="" style="edgeStyle=none;html=1;rounded=0;" parent="1" edge="1">
          <mxGeometry relative="1" as="geometry">
            <mxPoint x="1620" y="495" as="targetPoint" />
            <mxPoint x="1345" y="494.58" as="sourcePoint" />
          </mxGeometry>
        </mxCell>
        <mxCell id="103" value="" style="rounded=0;whiteSpace=wrap;html=1;" parent="1" vertex="1">
          <mxGeometry x="1230" y="565" width="70" height="40" as="geometry" />
        </mxCell>
        <mxCell id="104" value="" style="edgeStyle=none;html=1;rounded=0;" parent="1" edge="1">
          <mxGeometry relative="1" as="geometry">
            <mxPoint x="1265" y="595" as="sourcePoint" />
            <mxPoint x="1265" y="655" as="targetPoint" />
          </mxGeometry>
        </mxCell>
        <mxCell id="105" value="" style="rounded=0;whiteSpace=wrap;html=1;" parent="1" vertex="1">
          <mxGeometry x="1300" y="565" width="70" height="40" as="geometry" />
        </mxCell>
        <mxCell id="106" value="" style="ellipse;whiteSpace=wrap;html=1;aspect=fixed;fillColor=#000000;rounded=0;" parent="1" vertex="1">
          <mxGeometry x="1325" y="575" width="20" height="20" as="geometry" />
        </mxCell>
        <mxCell id="107" value="" style="ellipse;whiteSpace=wrap;html=1;aspect=fixed;fillColor=#000000;rounded=0;" parent="1" vertex="1">
          <mxGeometry x="1255" y="575" width="20" height="20" as="geometry" />
        </mxCell>
        <mxCell id="108" value="" style="edgeStyle=none;html=1;rounded=0;" parent="1" edge="1">
          <mxGeometry relative="1" as="geometry">
            <mxPoint x="1420" y="584.5799999999999" as="targetPoint" />
            <mxPoint x="1345" y="584.5799999999999" as="sourcePoint" />
          </mxGeometry>
        </mxCell>
        <mxCell id="109" value="G" style="text;html=1;align=center;verticalAlign=middle;resizable=0;points=[];autosize=1;strokeColor=none;fillColor=none;rounded=0;" parent="1" vertex="1">
          <mxGeometry x="1250" y="655" width="30" height="30" as="geometry" />
        </mxCell>
        <mxCell id="117" value="" style="rounded=0;whiteSpace=wrap;html=1;" parent="1" vertex="1">
          <mxGeometry x="1420" y="565" width="70" height="40" as="geometry" />
        </mxCell>
        <mxCell id="118" value="" style="edgeStyle=none;html=1;rounded=0;" parent="1" edge="1">
          <mxGeometry relative="1" as="geometry">
            <mxPoint x="1455" y="595" as="sourcePoint" />
            <mxPoint x="1455" y="655" as="targetPoint" />
          </mxGeometry>
        </mxCell>
        <mxCell id="119" value="" style="rounded=0;whiteSpace=wrap;html=1;" parent="1" vertex="1">
          <mxGeometry x="1490" y="565" width="70" height="40" as="geometry" />
        </mxCell>
        <mxCell id="120" value="" style="ellipse;whiteSpace=wrap;html=1;aspect=fixed;fillColor=#000000;rounded=0;" parent="1" vertex="1">
          <mxGeometry x="1515" y="575" width="20" height="20" as="geometry" />
        </mxCell>
        <mxCell id="121" value="" style="ellipse;whiteSpace=wrap;html=1;aspect=fixed;fillColor=#000000;rounded=0;" parent="1" vertex="1">
          <mxGeometry x="1445" y="575" width="20" height="20" as="geometry" />
        </mxCell>
        <mxCell id="122" value="" style="edgeStyle=none;html=1;rounded=0;" parent="1" edge="1">
          <mxGeometry relative="1" as="geometry">
            <mxPoint x="1610" y="584.5799999999999" as="targetPoint" />
            <mxPoint x="1535" y="584.5799999999999" as="sourcePoint" />
          </mxGeometry>
        </mxCell>
        <mxCell id="124" value="" style="rounded=0;whiteSpace=wrap;html=1;" parent="1" vertex="1">
          <mxGeometry x="1420" y="655" width="70" height="40" as="geometry" />
        </mxCell>
        <mxCell id="125" value="" style="edgeStyle=none;html=1;rounded=0;" parent="1" edge="1">
          <mxGeometry relative="1" as="geometry">
            <mxPoint x="1455" y="685" as="sourcePoint" />
            <mxPoint x="1455" y="745" as="targetPoint" />
          </mxGeometry>
        </mxCell>
        <mxCell id="126" value="" style="rounded=0;whiteSpace=wrap;html=1;" parent="1" vertex="1">
          <mxGeometry x="1490" y="655" width="70" height="40" as="geometry" />
        </mxCell>
        <mxCell id="127" value="" style="ellipse;whiteSpace=wrap;html=1;aspect=fixed;fillColor=#000000;rounded=0;" parent="1" vertex="1">
          <mxGeometry x="1515" y="665" width="20" height="20" as="geometry" />
        </mxCell>
        <mxCell id="128" value="" style="ellipse;whiteSpace=wrap;html=1;aspect=fixed;fillColor=#000000;rounded=0;" parent="1" vertex="1">
          <mxGeometry x="1445" y="665" width="20" height="20" as="geometry" />
        </mxCell>
        <mxCell id="129" value="" style="edgeStyle=none;html=1;rounded=0;" parent="1" edge="1">
          <mxGeometry relative="1" as="geometry">
            <mxPoint x="1610" y="674.5799999999999" as="targetPoint" />
            <mxPoint x="1535" y="674.5799999999999" as="sourcePoint" />
          </mxGeometry>
        </mxCell>
        <mxCell id="130" value="H" style="text;html=1;align=center;verticalAlign=middle;resizable=0;points=[];autosize=1;strokeColor=none;fillColor=none;rounded=0;" parent="1" vertex="1">
          <mxGeometry x="1440" y="745" width="30" height="30" as="geometry" />
        </mxCell>
        <mxCell id="131" value="NIL" style="text;html=1;align=center;verticalAlign=middle;resizable=0;points=[];autosize=1;strokeColor=none;fillColor=none;rounded=0;" parent="1" vertex="1">
          <mxGeometry x="1605" y="660" width="40" height="30" as="geometry" />
        </mxCell>
        <mxCell id="132" value="NIL" style="text;html=1;align=center;verticalAlign=middle;resizable=0;points=[];autosize=1;strokeColor=none;fillColor=none;rounded=0;" parent="1" vertex="1">
          <mxGeometry x="1605" y="570" width="40" height="30" as="geometry" />
        </mxCell>
        <mxCell id="133" value="NIL" style="text;html=1;align=center;verticalAlign=middle;resizable=0;points=[];autosize=1;strokeColor=none;fillColor=none;rounded=0;" parent="1" vertex="1">
          <mxGeometry x="1620" y="480" width="40" height="30" as="geometry" />
        </mxCell>
        <mxCell id="134" value="NIL" style="text;html=1;align=center;verticalAlign=middle;resizable=0;points=[];autosize=1;strokeColor=none;fillColor=none;rounded=0;" parent="1" vertex="1">
          <mxGeometry x="1635" y="390" width="40" height="30" as="geometry" />
        </mxCell>
        <mxCell id="135" value="NIL" style="text;html=1;align=center;verticalAlign=middle;resizable=0;points=[];autosize=1;strokeColor=none;fillColor=none;rounded=0;" parent="1" vertex="1">
          <mxGeometry x="1635" y="300" width="40" height="30" as="geometry" />
        </mxCell>
        <mxCell id="136" value="NIL" style="text;html=1;align=center;verticalAlign=middle;resizable=0;points=[];autosize=1;strokeColor=none;fillColor=none;rounded=0;" parent="1" vertex="1">
          <mxGeometry x="1645" y="205" width="40" height="30" as="geometry" />
        </mxCell>
        <mxCell id="137" value="NIL" style="text;html=1;align=center;verticalAlign=middle;resizable=0;points=[];autosize=1;strokeColor=none;fillColor=none;rounded=0;" parent="1" vertex="1">
          <mxGeometry x="1655" y="115" width="40" height="30" as="geometry" />
        </mxCell>
      </root>
    </mxGraphModel>
  </diagram>
</mxfile>
